<?xml version="1.0" encoding="UTF-8" standalone="no"?>
<!-- Created with Inkscape (http://www.inkscape.org/) -->

<svg
   xmlns:dc="http://purl.org/dc/elements/1.1/"
   xmlns:cc="http://creativecommons.org/ns#"
   xmlns:rdf="http://www.w3.org/1999/02/22-rdf-syntax-ns#"
   xmlns:svg="http://www.w3.org/2000/svg"
   xmlns="http://www.w3.org/2000/svg"
   xmlns:xlink="http://www.w3.org/1999/xlink"
   xmlns:sodipodi="http://sodipodi.sourceforge.net/DTD/sodipodi-0.dtd"
   xmlns:inkscape="http://www.inkscape.org/namespaces/inkscape"
   width="256"
   height="256"
   id="svg3943"
   version="1.1"
   inkscape:version="0.91 r13725"
   sodipodi:docname="logo_small.svg"
   inkscape:export-filename="/home/varoquau/dev/scipy-lecture-notes/icon-128.png"
   inkscape:export-xdpi="45"
   inkscape:export-ydpi="45">
  <defs
     id="defs3">
    <linearGradient
       id="linearGradient4408">
      <stop
         style="stop-color:#20435c;stop-opacity:1;"
         offset="0"
         id="stop4410" />
      <stop
         style="stop-color:#20435c;stop-opacity:0;"
         offset="1"
         id="stop4412" />
    </linearGradient>
    <linearGradient
       id="linearGradient4024">
      <stop
         style="stop-color:#a1a4ce;stop-opacity:1;"
         offset="0"
         id="stop4026" />
      <stop
         style="stop-color:#ffffff;stop-opacity:1;"
         offset="1"
         id="stop4028" />
    </linearGradient>
    <radialGradient
       inkscape:collect="always"
       xlink:href="#linearGradient4408"
       id="radialGradient4416"
       cx="288.10654"
       cy="76.910324"
       fx="288.10654"
       fy="76.910324"
       r="371.07468"
       gradientTransform="matrix(0.28938003,1.2529788,-0.94701014,0.21871547,165.07468,-37.072919)"
       gradientUnits="userSpaceOnUse" />
  </defs>
  <sodipodi:namedview
     inkscape:document-units="mm"
     id="base"
     pagecolor="#c8c8c8"
     bordercolor="#666666"
     borderopacity="1.0"
     inkscape:pageopacity="0"
     inkscape:pageshadow="2"
     inkscape:zoom="3.1367188"
     inkscape:cx="74.440848"
     inkscape:cy="128"
     inkscape:current-layer="layer1"
     showgrid="false"
     units="px"
     inkscape:window-width="1311"
     inkscape:window-height="990"
     inkscape:window-x="0"
     inkscape:window-y="24"
     inkscape:window-maximized="0"
     inkscape:snap-bbox="true"
     inkscape:bbox-paths="false"
     inkscape:bbox-nodes="false"
     inkscape:snap-bbox-edge-midpoints="false"
     fit-margin-top="0"
     fit-margin-left="0"
     fit-margin-right="0"
     fit-margin-bottom="0">
    <inkscape:grid
       type="xygrid"
       id="grid3170"
       empspacing="5"
       visible="true"
       enabled="true"
       snapvisiblegridlinesonly="true"
       originx="-326.34601px"
       originy="-517.26927px" />
  </sodipodi:namedview>
  <metadata
     id="metadata4">
    <rdf:RDF>
      <cc:Work
         rdf:about="">
        <dc:format>image/svg+xml</dc:format>
        <dc:type
           rdf:resource="http://purl.org/dc/dcmitype/StillImage" />
        <dc:title />
      </cc:Work>
    </rdf:RDF>
  </metadata>
  <g
     inkscape:label="Layer 1"
     inkscape:groupmode="layer"
     id="layer1"
     transform="translate(-326.34601,-279.09291)">
    <text
       xml:space="preserve"
       style="font-size:20px;font-style:normal;font-variant:normal;font-weight:normal;font-stretch:normal;text-align:center;line-height:125%;letter-spacing:0px;word-spacing:0px;writing-mode:lr-tb;text-anchor:middle;fill:#000000;fill-opacity:1;stroke:none;font-family:Source Sans Pro;-inkscape-font-specification:Source Sans Pro"
       x="311.74191"
       y="247.02477"
       id="text4336-5-1"
       sodipodi:linespacing="125%"><tspan
         sodipodi:role="line"
         id="tspan4338-4-7"
         x="311.74191"
         y="247.02477"
         style="font-size:64px;font-style:normal;font-variant:normal;font-weight:300;font-stretch:normal;text-align:start;line-height:125%;writing-mode:lr-tb;text-anchor:start;font-family:Source Sans Pro;-inkscape-font-specification:Source Sans Pro Light" /></text>
    <flowRoot
       xml:space="preserve"
       id="flowRoot3300"
       style="font-size:20px;font-style:normal;font-variant:normal;font-weight:bold;font-stretch:normal;line-height:125%;letter-spacing:0px;word-spacing:0px;fill:#000000;fill-opacity:1;stroke:none;font-family:Arial;-inkscape-font-specification:Arial Bold"><flowRegion
         id="flowRegion3302"><rect
           id="rect3304"
           width="77.321754"
           height="204.44395"
           x="-330.25562"
           y="948.82965" /></flowRegion><flowPara
         id="flowPara3306" /></flowRoot>    <flowRoot
       xml:space="preserve"
       id="flowRoot3308"
       style="font-size:20px;font-style:normal;font-variant:normal;font-weight:bold;font-stretch:normal;line-height:125%;letter-spacing:0px;word-spacing:0px;fill:#000000;fill-opacity:1;stroke:none;font-family:Arial;-inkscape-font-specification:Arial Bold"><flowRegion
         id="flowRegion3310"><rect
           id="rect3312"
           width="698.51685"
           height="94.358749"
           x="28.831841"
           y="937.03479" /></flowRegion><flowPara
         id="flowPara3314" /></flowRoot>    <g
       id="g4093"
       transform="matrix(1.5083677,0,0,1.5083677,-149.86951,-270.61315)">
      <path
         sodipodi:nodetypes="ccccccc"
         inkscape:connector-curvature="0"
         id="path4827-3-9-6-8-3"
         d="m 329.26045,490.73806 0,-82.88082 71.31533,-41.44042 71.31527,41.44042 0,82.88082 -71.31527,41.44042 z"
         style="fill:#20435c;fill-opacity:1;stroke:#ffffff;stroke-width:3.86435628;stroke-linecap:butt;stroke-linejoin:miter;stroke-miterlimit:4;stroke-opacity:1;stroke-dasharray:none" />
      <path
         sodipodi:nodetypes="ccccccc"
         inkscape:connector-curvature="0"
         id="path4827-3-9-6-2-7-4"
         d="m 338.50379,485.4587 0,-72.52073 62.40091,-36.26037 62.40095,36.26037 0,72.52073 -62.40095,36.26036 z"
         style="fill:#ffffff;fill-opacity:1;stroke:none" />
      <path
         sodipodi:nodetypes="czsccccccccccccccccccccccccccccccccccccccccccccccc"
         style="fill:#20435c;fill-opacity:1;fill-rule:evenodd;stroke:#20435c;stroke-width:1.32593668;stroke-miterlimit:4;stroke-opacity:1;stroke-dasharray:none"
         inkscape:connector-curvature="0"
         id="path9-0-4-4-9"
         d="m 423.16326,457.229 c -4.19363,-5.78706 -12.52262,-8.79059 -19.76153,-10.14543 -7.23886,-1.35482 -10.28339,-2.25572 -14.94213,-4.8063 -3.63462,-1.98986 -6.25428,-8.81783 -5.43764,-14.46994 1.26883,-8.75608 9.37554,-14.85952 18.1087,-13.62926 4.36141,0.62231 8.05993,2.952 10.49854,6.2316 l 9.66985,12.81702 c 5.52706,7.18147 11.74134,9.31882 18.50182,5.92764 l 3.40857,-1.46301 c 0.27308,-0.12802 0.59319,-0.14014 0.90391,-0.026 0.25428,0.0996 0.46133,0.28255 0.58377,0.49875 l 0.67805,1.03062 c 0.18829,0.31102 0.47077,0.56271 0.83811,0.70303 0.62142,0.23758 1.29006,0.0952 1.76083,-0.31345 l 7.85261,-7.47137 c 1.37466,-1.18748 0.96971,-2.2774 0.96971,-2.2774 l -1.89265,-4.3484 c 0,0 -0.51776,-1.04254 -2.30679,-0.80272 l -10.52674,0.97612 c -0.61198,0.0878 -1.1582,0.49878 -1.39343,1.1257 -0.14122,0.36575 -0.15051,0.74801 -0.0472,1.09482 l 0.37673,1.22297 c 0.0754,0.25412 0.0754,0.53914 -0.0281,0.80032 -0.12242,0.32294 -0.3671,0.55108 -0.65901,0.67217 l -2.97539,1.27063 c -3.11667,1.84042 -6.65683,0.66487 -9.02027,-2.25139 l -2.70228,-3.62176 -7.69261,-10.29982 c -3.65321,-4.88751 -9.16148,-8.37381 -15.66763,-9.29038 -13.0266,-1.84039 -25.11625,7.26004 -27.00891,20.32632 -0.95571,6.58542 1.0008,12.81657 4.57135,17.8208 2.59408,3.63635 7.34837,5.71385 9.91979,6.36269 6.42787,2.31337 11.98874,2.63634 18.08218,4.8153 1.36814,0.49971 4.51952,1.67187 7.08058,3.78636 l 0,0 c 3.06004,3.13854 4.67956,7.62236 3.99235,12.32459 -1.15819,8.01753 -8.57768,13.60324 -16.57155,12.47266 -4.00394,-0.56051 -7.38431,-2.70151 -9.62283,-5.69974 l -9.2367,-12.36811 c -1.88327,-2.52109 -4.73139,-4.32213 -8.09756,-4.80676 -3.3613,-0.475 -6.61439,0.46542 -9.13544,2.37102 l -19.43151,14.62897 c -5.99471,4.06569 0.14432,9.65699 4.18471,6.47892 l 19.90467,-15.0526 c 0.91089,-0.62695 2.04089,-0.91195 3.21308,-0.75047 1.24764,0.18059 2.30918,0.84163 3.00603,1.77645 l 9.77108,13.24793 c 3.44135,4.25965 8.44126,7.27658 14.29542,8.10681 12.31573,1.73827 23.7464,-6.86801 25.5354,-19.22689 0.82821,-5.75103 -0.56523,-11.30441 -3.55005,-15.76903"
         clip-rule="evenodd" />
    </g>
  </g>
</svg>
